<svg width="16" height="17" viewBox="0 0 16 17" fill="none" xmlns="http://www.w3.org/2000/svg">
<path d="M14.125 0C14.5022 0 14.8661 0.131068 15.1553 0.368164L15.2744 0.475586L15.3818 0.594727C15.6189 0.883942 15.75 1.24775 15.75 1.625V6.20801C15.75 13.4852 9.54796 15.878 8.38184 16.2646L8.38086 16.2637C8.05211 16.3741 7.69686 16.3743 7.36816 16.2637C6.2013 15.8767 0 13.4846 0 6.20801V1.625C3.15706e-08 1.19402 0.17084 0.780332 0.475586 0.475586L0.594727 0.368164C0.883941 0.131069 1.24775 0 1.625 0H14.125ZM7.68262 15.3154H7.68359L7.87109 14.748V14.7471L7.68262 15.3154ZM7.87402 14.7373L7.87793 14.748L7.875 14.7373V14.7363L7.87402 14.7373ZM2 6.20801C2 11.8555 6.60372 13.8734 7.875 14.3223C9.14628 13.8734 13.75 11.8555 13.75 6.20801V2H2V6.20801ZM10.6221 4.65137C11.0216 4.27019 11.6548 4.28512 12.0361 4.68457C12.4173 5.08408 12.4024 5.71735 12.0029 6.09863L7.41992 10.4736C7.03361 10.8424 6.4255 10.8422 6.03906 10.4736L3.74707 8.28613C3.34763 7.90484 3.33269 7.27158 3.71387 6.87207C4.09516 6.47263 4.72842 6.45769 5.12793 6.83887L6.72852 8.36719L10.6221 4.65137Z" fill="#9F9F9F"/>
</svg>
